HIERARCHY
ROOT Hips
{
	OFFSET 0.000000 0.000000 0.000000 
	CHANNELS 6 Xposition Yposition Zposition Zrotation Yrotation Xrotation
	JOINT LeftUpLeg
	{
		OFFSET 1.363060 -1.794630 0.839290 
		CHANNELS 3 Zrotation Yrotation Xrotation
		JOINT LeftLeg
		{
			OFFSET 2.448110 -6.726130 0.000000 
			CHANNELS 3 Zrotation Yrotation Xrotation
			JOINT LeftFoot
			{
				OFFSET 2.562200 -7.039590 0.000000 
				CHANNELS 3 Zrotation Yrotation Xrotation
				JOINT LeftToeBase
				{
					OFFSET 0.157640 -0.433110 2.322550 
					CHANNELS 3 Zrotation Yrotation Xrotation
					End Site
					{
						OFFSET 0.000000 0.000000 0.000000 
					}
				}
			}
		}
	}
	JOINT RightUpLeg
	{
		OFFSET -1.305520 -1.794630 0.839290 
		CHANNELS 3 Zrotation Yrotation Xrotation
		JOINT RightLeg
		{
			OFFSET -2.542530 -6.985550 0.000000 
			CHANNELS 3 Zrotation Yrotation Xrotation
			JOINT RightFoot
			{
				OFFSET -2.568260 -7.056230 0.000000 
				CHANNELS 3 Zrotation Yrotation Xrotation
				JOINT RightToeBase
				{
					OFFSET -0.164730 -0.452590 2.363150 
					CHANNELS 3 Zrotation Yrotation Xrotation
					End Site
					{
						OFFSET 0.000000 0.000000 0.000000 
					}
				}
			}
		}
	}
	JOINT Spine
	{
		OFFSET 0.028270 2.035590 -0.193380 
		CHANNELS 3 Zrotation Yrotation Xrotation
		JOINT Spine1
		{
			OFFSET 0.056720 2.048850 -0.042750 
			CHANNELS 3 Zrotation Yrotation Xrotation
			JOINT Neck1
			{
				OFFSET -0.054170 1.746240 0.172020 
				CHANNELS 3 Zrotation Yrotation Xrotation
				JOINT Head
				{
					OFFSET 0.104070 1.761360 -0.123970 
					CHANNELS 3 Zrotation Yrotation Xrotation
					End Site
					{
						OFFSET 0.000000 0.000000 0.000000 
					}
				}
			}
			JOINT LeftArm
			{
				OFFSET 3.362410 1.200890 -0.311210 
				CHANNELS 3 Zrotation Yrotation Xrotation
				JOINT LeftForeArm
				{
					OFFSET 4.983000 -0.000000 -0.000000 
					CHANNELS 3 Zrotation Yrotation Xrotation
					JOINT LeftHand
					{
						OFFSET 3.483560 -0.000000 -0.000000 
						CHANNELS 3 Zrotation Yrotation Xrotation
						JOINT LeftHandIndex1
						{
							OFFSET 0.715260 -0.000000 -0.000000 
							CHANNELS 3 Zrotation Yrotation Xrotation
							End Site
							{
								OFFSET 0.000000 0.000000 0.000000 
							}
						}
					}
				}
			}
			JOINT RightArm
			{
				OFFSET -3.136600 1.374050 -0.404650 
				CHANNELS 3 Zrotation Yrotation Xrotation
				JOINT RightForeArm
				{
					OFFSET -5.241900 -0.000000 -0.000000 
					CHANNELS 3 Zrotation Yrotation Xrotation
					JOINT RightHand
					{
						OFFSET -3.444170 -0.000000 -0.000000 
						CHANNELS 3 Zrotation Yrotation Xrotation
						JOINT RightHandIndex1
						{
							OFFSET -0.622530 -0.000000 -0.000000 
							CHANNELS 3 Zrotation Yrotation Xrotation
							End Site
							{
								OFFSET 0.000000 0.000000 0.000000 
							}
						}
					}
				}
			}
		}
	}
}
MOTION
Frames: 7
Frame Time: 0.041667
-1.216279 17.046882 4.522413 -0.980515 -12.237501 4.698185 -20.464646 1.403746 9.394099 -1.748670 -0.884336 1.528719 -1.700494 17.332958 -14.090690 0.239500 3.149700 8.695900 27.978998 12.168899 -4.233182 0.510695 -7.740931 22.704360 0.083633 -7.027149 -14.680233 -0.032400 1.161900 -3.194500 1.675387 -4.888012 -5.315150 0.189403 -2.446298 -2.290217 5.062991 -8.841579 11.668172 -1.492900 -3.805100 10.603400 -100.987942 4.353730 26.971415 28.196807 -37.957705 -6.200921 0.094973 4.479252 14.999572 -7.125000 0.000000 0.000000 91.894332 -5.562155 24.656328 -21.813829 31.362575 -3.758657 -0.911663 -3.409136 5.835510 7.125000 0.000000 0.000000 
-1.222533 17.054861 4.505267 -0.985246 -11.947501 4.892687 -20.449845 1.015795 9.108653 -1.756272 -0.871851 1.506757 -1.744308 17.493797 -13.897366 0.219800 3.018400 8.329900 28.013812 12.252391 -4.377727 0.531766 -7.730322 22.604941 0.124019 -7.332476 -14.703065 -0.030400 1.124700 -3.092100 1.697771 -5.016396 -5.343772 0.251017 -2.505558 -2.360739 5.048378 -8.823217 11.733682 -1.522600 -3.786900 10.669300 -101.072939 4.313683 26.953378 28.209887 -37.996957 -6.204976 0.023962 4.513278 15.072645 -7.125000 0.000000 0.000000 92.131995 -5.430147 24.454480 -21.749574 31.340605 -3.741196 -0.878493 -3.434362 5.906719 7.125000 0.000000 0.000000 
-1.224690 17.053999 4.502571 -0.997763 -11.858211 4.881269 -20.425697 0.925172 9.116138 -1.757567 -0.873910 1.504804 -1.752578 17.524679 -13.871291 0.219500 3.015800 8.322700 28.034376 12.174180 -4.365516 0.533779 -7.719536 22.584154 0.128102 -7.352705 -14.687453 -0.031500 1.146400 -3.151600 1.704804 -5.055854 -5.351166 0.266542 -2.522203 -2.425306 5.059896 -8.769394 11.784270 -1.482500 -3.769300 10.660900 -101.197445 4.354650 27.026358 28.161836 -37.980995 -6.188646 0.091259 4.489053 14.991482 -7.125000 0.000000 0.000000 92.321958 -5.417394 24.319692 -21.677231 31.318576 -3.722796 -0.867958 -3.442636 5.938556 7.125000 0.000000 0.000000 
-1.231915 17.053136 4.499336 -1.054833 -11.881599 4.877472 -20.322734 0.956389 9.112804 -1.754159 -0.878148 1.508756 -1.748374 17.496277 -13.882934 0.224600 3.050700 8.419900 28.163554 12.338353 -4.299490 0.544224 -7.713895 22.552502 0.142475 -7.481871 -14.720644 -0.029200 1.102800 -3.031700 1.738774 -5.126979 -5.361361 0.456444 -2.548551 -2.438949 5.028738 -8.630036 11.863270 -1.480600 -3.716500 10.711000 -101.510240 4.438737 26.764317 28.177276 -38.078211 -6.204302 0.070768 4.509136 15.060247 -7.125000 0.000000 0.000000 92.322280 -5.431558 24.592275 -21.694901 31.318295 -3.727523 -0.892114 -3.439117 5.920438 7.125000 0.000000 0.000000 
-1.234611 17.053460 4.495454 -1.045378 -11.797997 4.893811 -20.325467 0.857781 9.082060 -1.756282 -0.876841 1.504242 -1.756335 17.526018 -13.849127 0.221600 3.030200 8.362800 28.159461 12.303967 -4.322474 0.543426 -7.715449 22.554388 0.144782 -7.508106 -14.737759 -0.028400 1.087700 -2.990200 1.740482 -5.148012 -5.363948 0.451504 -2.557964 -2.448710 5.022031 -8.613757 11.913162 -1.481000 -3.706600 10.735800 -101.597581 4.444351 26.810613 28.155248 -38.081009 -6.195579 0.069157 4.511620 15.057850 -7.125000 0.000000 0.000000 92.518353 -5.370252 24.541116 -21.664849 31.349157 -3.726868 -0.886664 -3.461341 5.932369 7.125000 0.000000 0.000000 
-1.236552 17.053244 4.492866 -1.029147 -11.725733 4.897833 -20.340708 0.775480 9.071340 -1.758406 -0.875889 1.500536 -1.762000 17.548657 -13.825421 0.218600 3.009600 8.305400 28.138330 12.236144 -4.341801 0.540255 -7.717223 22.564523 0.141647 -7.492086 -14.751649 -0.027700 1.073900 -2.952200 1.735290 -5.147643 -5.361504 0.411855 -2.558995 -2.440010 5.016729 -8.618486 11.957118 -1.483900 -3.704200 10.758900 -101.651712 4.439738 26.895242 28.126167 -38.067355 -6.181356 0.069094 4.509036 15.058898 -7.125000 0.000000 0.000000 92.725245 -5.300859 24.501318 -21.649632 31.406533 -3.732618 -0.877277 -3.491470 5.928738 7.125000 0.000000 0.000000 
-1.238277 17.053136 4.490602 -1.019006 -11.653346 4.905524 -20.350168 0.693284 9.058762 -1.760364 -0.875040 1.496904 -1.767631 17.570192 -13.802089 0.214900 2.984700 8.236100 28.123743 12.171452 -4.361438 0.537327 -7.719764 22.575335 0.138215 -7.476905 -14.768407 -0.027000 1.060600 -2.915500 1.729015 -5.142149 -5.358054 0.365490 -2.558503 -2.423189 5.009837 -8.630729 12.000196 -1.490900 -3.703900 10.785600 -101.696960 4.435984 26.978867 28.096244 -38.049039 -6.165137 0.064850 4.504836 15.080809 -7.125000 0.000000 0.000000 92.922644 -5.233738 24.502297 -21.659608 31.487430 -3.744905 -0.864157 -3.524031 5.907394 7.125000 0.000000 0.000000 
